<!DOCTYPE svg PUBLIC "-//W3C//DTD SVG 1.1//EN" "http://www.w3.org/Graphics/SVG/1.1/DTD/svg11.dtd">
<!-- Uploaded to: SVG Repo, www.svgrepo.com, Transformed by: SVG Repo Mixer Tools -->
<svg fill="#646464" height="800px" width="800px" version="1.1" id="Layer_1" xmlns="http://www.w3.org/2000/svg" xmlns:xlink="http://www.w3.org/1999/xlink" viewBox="0 0 512 512" xml:space="preserve" stroke="#646464">
<g id="SVGRepo_bgCarrier" stroke-width="0"/>
<g id="SVGRepo_tracerCarrier" stroke-linecap="round" stroke-linejoin="round"/>
<g id="SVGRepo_iconCarrier"> <g> <g> <path d="M256,0C114.84,0,0,114.842,0,256s114.84,256,256,256s256-114.842,256-256S397.16,0,256,0z M256,462.452 c-113.837,0-206.452-92.614-206.452-206.452S142.163,49.548,256,49.548S462.452,142.163,462.452,256S369.837,462.452,256,462.452z "/> </g> </g> <g> <g> <path d="M256,132.129c-68.302,0-123.871,55.569-123.871,123.871S187.698,379.871,256,379.871S379.871,324.302,379.871,256 S324.302,132.129,256,132.129z M256,330.323c-40.983,0-74.323-33.341-74.323-74.323c0-40.982,33.339-74.323,74.323-74.323 s74.323,33.341,74.323,74.323C330.323,296.981,296.983,330.323,256,330.323z"/> </g> </g> </g>
</svg>